<?xml version="1.0" standalone="no"?>
<!DOCTYPE svg PUBLIC "-//W3C//DTD SVG 20010904//EN"
 "http://www.w3.org/TR/2001/REC-SVG-20010904/DTD/svg10.dtd">
<svg version="1.0" xmlns="http://www.w3.org/2000/svg"
 width="3000.000000pt" height="3000.000000pt" viewBox="0 0 3000.000000 3000.000000"
 preserveAspectRatio="xMidYMid meet">
<metadata>
Created by potrace 1.11, written by Peter Selinger 2001-2013
</metadata>
<g transform="translate(0.000000,3000.000000) scale(0.100000,-0.100000)"
fill="#000000" stroke="none">
<path d="M13729 21685 c-2 -2 -49 -6 -104 -9 -146 -10 -247 -19 -360 -35 -38
-6 -90 -13 -115 -16 -25 -4 -103 -18 -175 -32 -71 -14 -141 -27 -155 -29 -14
-3 -33 -7 -42 -10 -9 -3 -25 -6 -35 -8 -10 -2 -47 -12 -83 -21 -36 -9 -72 -18
-80 -20 -48 -11 -272 -81 -370 -116 -472 -169 -892 -406 -1260 -713 -98 -82
-321 -302 -401 -395 -132 -155 -309 -409 -410 -588 -142 -253 -289 -628 -334
-856 -3 -10 -7 -27 -10 -37 -15 -47 -63 -330 -70 -415 -4 -38 -8 -77 -10 -85
-17 -62 -24 -526 -12 -713 8 -126 32 -314 53 -422 2 -11 7 -33 10 -50 59 -331
243 -735 463 -1020 71 -92 80 -102 176 -203 170 -179 463 -411 655 -520 19
-11 76 -43 125 -72 280 -163 789 -385 1195 -520 52 -18 104 -36 115 -41 40
-17 368 -121 470 -149 17 -5 77 -22 135 -40 58 -17 114 -33 124 -35 11 -3 40
-11 65 -20 49 -16 293 -87 376 -110 44 -12 202 -58 485 -141 326 -96 783 -280
945 -379 22 -14 47 -28 55 -32 26 -11 163 -104 210 -141 168 -135 250 -244
305 -407 24 -71 28 -98 30 -230 3 -177 -12 -253 -75 -381 -40 -82 -64 -115
-130 -181 -281 -283 -897 -391 -1750 -308 -70 7 -233 29 -290 39 -14 3 -68 12
-120 21 -52 9 -97 18 -100 20 -3 2 -21 6 -40 9 -19 3 -50 10 -67 15 -18 5 -33
8 -33 5 0 -3 -8 0 -17 5 -10 5 -31 11 -48 14 -102 19 -539 152 -815 250 -398
141 -865 350 -1184 531 -232 132 -518 324 -613 412 l-25 23 -233 -462 c-613
-1217 -955 -1898 -955 -1901 0 -11 457 -296 476 -296 2 0 23 -11 45 -25 91
-58 460 -237 684 -332 387 -164 984 -376 1235 -438 8 -2 47 -13 85 -24 149
-42 420 -109 515 -127 14 -3 54 -12 89 -20 36 -8 80 -16 97 -19 18 -2 67 -11
110 -20 42 -9 88 -17 103 -19 14 -2 69 -11 121 -19 124 -20 143 -23 285 -41
137 -18 195 -25 360 -41 106 -11 303 -24 445 -31 103 -4 610 -4 693 1 162 9
264 16 297 20 19 2 67 7 105 10 90 8 153 15 186 20 14 3 43 7 64 10 82 10 122
16 170 25 28 5 66 11 85 14 37 6 232 45 340 69 419 93 877 270 1216 468 174
101 386 249 493 343 257 226 424 416 593 676 41 63 84 131 94 150 10 19 21 37
24 40 13 12 112 214 146 295 74 179 158 459 178 590 4 22 8 47 11 55 6 21 14
66 21 120 3 25 7 52 9 60 2 8 7 47 10 85 4 39 8 81 11 95 8 47 18 295 18 450
0 206 -13 398 -38 585 -73 539 -266 1001 -589 1409 -72 91 -284 312 -362 376
-345 287 -720 504 -1190 689 -116 45 -226 89 -245 96 -154 62 -838 285 -1010
330 -8 2 -40 11 -70 20 -30 9 -62 17 -70 19 -8 2 -73 20 -145 40 -71 20 -166
46 -210 57 -44 12 -93 26 -110 31 -16 5 -174 49 -350 98 -618 171 -854 253
-1110 385 -432 222 -615 468 -619 830 -1 131 6 202 28 287 85 327 342 544 761
643 113 27 294 53 411 61 112 6 405 6 494 0 167 -13 228 -20 295 -32 10 -2 37
-6 60 -9 22 -3 65 -10 95 -16 30 -6 69 -13 85 -15 181 -30 852 -241 1060 -333
11 -5 68 -29 126 -54 252 -108 681 -320 749 -371 8 -6 31 -20 50 -30 72 -40
267 -170 316 -211 44 -38 51 -41 60 -27 6 10 44 80 84 157 40 77 120 227 176
333 56 106 112 212 124 235 12 23 36 69 54 102 38 71 117 221 234 440 46 88
103 196 127 240 63 119 125 236 195 370 35 66 75 143 90 170 15 28 44 80 63
117 l36 67 -87 49 c-48 27 -108 61 -134 76 -27 14 -67 37 -90 50 -128 70 -226
121 -438 227 -217 109 -365 179 -375 179 -2 0 -36 15 -77 33 -40 19 -89 40
-108 47 -19 7 -39 17 -44 22 -6 4 -16 8 -23 8 -7 0 -32 9 -56 19 -81 37 -368
139 -587 209 -312 100 -803 222 -1070 267 -19 3 -42 8 -50 10 -8 2 -37 7 -65
11 -27 3 -59 8 -70 10 -11 2 -40 7 -65 10 -25 3 -56 7 -70 9 -43 7 -212 26
-285 31 -38 3 -90 8 -115 10 -53 6 -726 15 -731 9z"/>
<path d="M23928 21685 c-2 -2 -53 -6 -113 -10 -61 -3 -123 -8 -140 -10 -16 -2
-55 -7 -85 -10 -94 -10 -214 -25 -245 -31 -11 -3 -33 -6 -50 -9 -210 -29 -593
-126 -835 -210 -369 -127 -645 -263 -960 -470 -206 -136 -379 -275 -547 -442
-170 -168 -296 -313 -386 -443 -54 -79 -153 -226 -156 -235 -2 -5 -22 -39 -44
-75 -57 -92 -157 -297 -209 -425 -41 -100 -100 -267 -99 -280 0 -2 -7 -24 -15
-47 -9 -24 -17 -50 -19 -58 -26 -111 -65 -292 -69 -315 -2 -16 -7 -50 -11 -75
-4 -25 -8 -56 -10 -70 -26 -170 -38 -366 -39 -600 0 -156 11 -397 19 -423 2
-7 6 -38 9 -70 5 -49 17 -130 42 -262 3 -16 12 -57 21 -90 8 -33 17 -68 19
-78 1 -10 24 -80 49 -155 194 -571 585 -1034 1190 -1409 60 -37 118 -73 130
-79 11 -6 61 -32 110 -59 118 -64 388 -195 401 -195 2 0 23 -9 47 -19 135 -62
443 -183 577 -227 25 -8 54 -19 65 -24 20 -8 200 -70 220 -75 6 -1 17 -5 25
-8 31 -12 337 -107 345 -107 5 0 47 -12 94 -26 209 -64 289 -88 486 -145 116
-33 233 -67 260 -74 28 -8 77 -23 110 -33 33 -10 62 -19 65 -19 18 1 339 -102
505 -161 653 -233 1041 -497 1160 -791 13 -32 26 -69 29 -82 3 -13 9 -45 14
-71 15 -75 14 -226 -2 -313 -62 -351 -323 -565 -803 -664 -54 -11 -123 -22
-153 -26 -30 -3 -70 -8 -89 -10 -64 -8 -256 -17 -361 -18 -106 0 -408 12 -439
18 -9 1 -52 6 -96 9 -44 4 -89 9 -100 11 -11 2 -42 7 -70 10 -27 3 -88 13
-135 21 -47 8 -101 17 -120 20 -166 26 -631 154 -945 259 -220 74 -600 221
-753 292 -199 91 -421 200 -522 255 -272 150 -649 401 -695 465 -9 12 -14 13
-19 4 -4 -6 -121 -238 -260 -514 -140 -276 -394 -781 -566 -1122 -171 -341
-316 -626 -322 -632 -6 -7 -8 -13 -4 -13 3 0 -3 -15 -14 -32 -11 -18 -20 -36
-20 -39 0 -12 408 -269 480 -302 8 -4 35 -19 60 -33 58 -34 378 -194 455 -229
33 -14 78 -35 100 -45 22 -10 112 -48 200 -84 88 -37 169 -71 180 -76 93 -43
740 -264 910 -310 39 -11 104 -29 145 -40 70 -20 297 -78 330 -85 8 -2 58 -13
110 -25 52 -12 106 -24 120 -26 14 -3 57 -11 95 -20 74 -15 104 -21 145 -29
128 -22 218 -37 235 -39 11 -2 40 -6 65 -10 73 -12 100 -16 260 -36 47 -6 101
-13 120 -15 46 -6 120 -13 200 -20 36 -3 83 -7 105 -10 22 -2 96 -7 165 -11
69 -3 150 -8 180 -10 69 -3 616 -3 690 0 98 5 264 17 300 21 19 2 62 7 95 10
345 33 799 117 1107 206 419 120 774 280 1128 507 459 295 863 751 1108 1249
39 80 113 252 118 273 0 3 3 12 7 20 19 48 88 284 102 350 34 159 56 293 70
420 4 30 8 71 11 90 26 233 21 740 -11 965 -3 22 -8 58 -10 79 -3 22 -7 51
-10 65 -2 14 -7 44 -10 66 -4 22 -21 103 -40 180 -48 202 -112 387 -189 543
-20 40 -36 74 -36 77 0 9 -124 220 -132 223 -4 2 -8 8 -8 13 0 14 -80 128
-168 239 -71 89 -257 283 -347 360 -267 232 -619 450 -985 610 -275 121 -762
299 -1110 406 -188 58 -310 94 -400 120 -47 13 -101 28 -120 34 -74 21 -246
68 -275 75 -16 5 -34 9 -40 11 -5 1 -77 21 -159 44 -81 22 -171 47 -200 55
-28 7 -141 39 -251 70 -110 31 -204 58 -210 59 -109 26 -422 135 -586 205
-435 186 -681 399 -766 661 -41 129 -52 333 -23 475 54 278 204 471 466 603
119 60 356 127 519 146 28 4 68 9 90 11 22 3 65 7 95 10 67 6 446 6 515 0 147
-12 196 -16 212 -19 10 -2 41 -7 68 -10 110 -14 291 -50 420 -82 135 -34 503
-146 570 -174 11 -5 47 -18 80 -29 99 -33 304 -116 477 -192 169 -75 533 -257
580 -290 14 -11 29 -19 32 -19 19 0 312 -191 392 -256 l55 -45 25 53 c14 29
37 76 52 103 15 28 58 109 96 180 38 72 97 182 131 245 34 63 71 135 84 160
12 25 35 68 50 95 15 28 58 109 95 180 38 72 81 153 96 180 15 28 51 95 80
150 146 279 231 438 243 453 5 6 7 12 3 12 -3 0 4 17 17 38 13 20 59 105 102
187 43 83 86 164 96 182 10 18 15 34 11 37 -13 8 -88 49 -212 118 -69 38 -132
73 -140 78 -80 49 -767 390 -785 390 -2 0 -28 11 -57 24 -30 14 -78 34 -108
46 -30 12 -68 27 -85 35 -16 7 -57 23 -90 35 -33 13 -73 28 -90 35 -135 55
-685 233 -805 260 -8 2 -78 19 -155 38 -230 58 -587 133 -725 152 -25 3 -56 8
-70 10 -61 11 -266 34 -365 41 -38 3 -90 8 -115 10 -52 6 -726 14 -732 9z"/>
<path d="M5180 21523 c0 -38 -2 -1551 -4 -3363 -2 -1812 -6 -3330 -9 -3373 -3
-43 -8 -144 -12 -225 -3 -81 -8 -169 -10 -197 -2 -27 -7 -95 -10 -150 -8 -119
-13 -184 -19 -245 -3 -25 -8 -70 -11 -100 -3 -30 -8 -66 -10 -80 -2 -14 -7
-45 -10 -70 -6 -45 -30 -182 -40 -230 -4 -14 -8 -36 -11 -50 -3 -14 -14 -59
-25 -100 -11 -41 -22 -83 -24 -94 -16 -68 -87 -251 -140 -361 -137 -283 -343
-503 -584 -624 -114 -58 -295 -120 -400 -137 -14 -2 -37 -7 -51 -9 -14 -3 -43
-7 -65 -11 -22 -3 -51 -7 -65 -10 -63 -10 -219 -18 -370 -18 -154 1 -409 12
-420 19 -3 2 -39 6 -80 9 -193 16 -551 97 -720 163 -8 4 -17 7 -20 8 -3 1 -14
5 -25 10 -11 4 -58 22 -105 40 -206 79 -405 172 -510 239 -38 24 -57 31 -61
23 -6 -11 -45 -155 -54 -196 -2 -9 -43 -160 -90 -336 -48 -176 -89 -327 -90
-335 -5 -19 -154 -574 -200 -740 -19 -69 -46 -168 -59 -220 -14 -52 -30 -112
-36 -134 -7 -21 -13 -46 -15 -55 -2 -9 -14 -54 -26 -100 l-23 -83 25 -19 c40
-30 238 -151 314 -192 212 -114 504 -238 695 -296 58 -18 116 -36 130 -41 31
-11 251 -66 305 -76 22 -4 42 -8 45 -9 3 0 28 -5 55 -10 28 -5 52 -9 55 -10 3
-1 30 -5 60 -10 30 -5 57 -9 60 -10 3 -1 34 -5 70 -9 36 -5 72 -10 81 -11 8
-2 49 -6 90 -10 41 -3 90 -8 109 -10 193 -20 775 -20 1050 1 41 3 104 7 140
10 36 2 81 6 100 8 19 3 64 8 100 11 92 9 137 14 205 25 33 5 80 12 105 15 25
3 52 8 60 10 8 2 35 7 58 10 35 5 269 53 342 70 68 16 239 65 360 105 55 18
197 72 264 101 90 39 346 167 366 182 8 7 31 21 50 31 39 22 244 156 275 180
11 9 45 35 75 58 317 242 614 593 799 943 24 44 46 85 50 90 6 9 47 96 114
245 14 30 37 87 52 125 15 39 33 88 42 110 34 91 109 328 129 410 1 6 11 46
22 90 23 90 70 310 78 364 3 20 9 59 14 86 5 28 14 86 20 131 6 44 12 89 14
100 2 10 7 53 11 94 4 41 9 83 10 92 2 9 7 48 10 85 4 37 8 79 10 93 3 14 7
57 10 95 3 39 8 93 11 120 10 106 14 153 19 225 3 41 7 109 10 150 3 41 8 102
10 135 2 33 7 123 10 200 4 77 8 178 10 225 15 323 18 927 17 3720 0 1730 -1
3151 -1 3158 -1 9 -279 12 -1356 12 l-1355 0 0 -67z"/>
</g>
</svg>
